# xmcd
#
# Track frame offsets:
#	150
#	16760
#	36257
#	54909
#	80335
#	103114
#	127793
#	146249
#	168677
#	189676
#	213637
#	234967
#	256567
#
# Disc length: 4071 seconds
#
# Revision: 1263259372
# Processed by: cddbd v1.5.2PL0 Copyright (c) Steve Scherf et al.
# Submitted via: EZCDAudioConverter 8.0.2.1
#
DISCID=a90fe50d
DTITLE=Đàm Vĩnh Hưng - Vol 07. Mr. Đàm
DYEAR=2005
DGENRE=
TTITLE0=Đàm Vĩnh Hưng - Em đã quên một dòng sông
TTITLE1=Đàm Vĩnh Hưng - Đừng thương tôi
TTITLE2=Đàm Vĩnh Hưng, Hồng Ngọc - Như đã dấu yêu
TTITLE3=Đàm Vĩnh Hưng - Ngồi nghe yêu thương trôi xa
TTITLE4=Đàm Vĩnh Hưng - Bạc tình
TTITLE5=Đàm Vĩnh Hưng - Hạnh phúc mong manh
TTITLE6=Đàm Vĩnh Hưng - Nỗi nhớ tình tôi
TTITLE7=Đàm Vĩnh Hưng - Tình em xứ Quảng
TTITLE8=Đàm Vĩnh Hưng - Thời gian chưa vùi lấp
TTITLE9=Đàm Vĩnh Hưng - Trong anh sầu đã lên ngôi
TTITLE10=Đàm Vĩnh Hưng - Người tình trăm năm
TTITLE11=Đàm Vĩnh Hưng - Không phải em
TTITLE12=Đàm Vĩnh Hưng - Chuyện thành Cổ Loa
EXTD=
EXTT0=
EXTT1=
EXTT2=
EXTT3=
EXTT4=
EXTT5=
EXTT6=
EXTT7=
EXTT8=
EXTT9=
EXTT10=
EXTT11=
EXTT12=
PLAYORDER=
